<svg xmlns="http://www.w3.org/2000/svg" width="330" height="293" style="
        width:330px;
        height:293px;
        background: white;
        fill: none;
">
        
        <svg xmlns="http://www.w3.org/2000/svg"><g class="shapes-region" style="stroke: black; fill: none;"><g class="composite-shape"><defs><!-- react-text: 6018 --> <!-- /react-text --><pattern id="_abs0za89j" x="0" y="0" width="11.313708498984761" height="11.313708498984761" patternTransform="rotate(45,0,0)" patternUnits="userSpaceOnUse"><path d="M0,0 L0,11.313708498984761" style="stroke: rgb(0, 0, 0); stroke-width: 1; fill: none;"/><path d="M5.656854249492381,0 L5.656854249492381,11.313708498984761" style="stroke: rgb(0, 0, 0); stroke-width: 1; fill: none;"/><path d="M11.313708498984761,0 L11.313708498984761,11.313708498984761" style="stroke: rgb(0, 0, 0); stroke-width: 1; fill: none;"/></pattern></defs><path class="real" d=" M17.3,10.2 L312.3,10.2 L312.3,279.2 L17.3,279.2 Z M271.95,50.55 L57.65,50.55 L57.65,238.85 L271.95,238.85 Z" style="stroke-width: 1; stroke: rgb(0, 0, 0); fill: url(&quot;#_abs0za89j&quot;);"/></g><g class="composite-shape"><path class="real" d=" M212.56,45.72 L202.06,34.41 L216.17,40.66 L215.27,41.92 L233.73,55.09 L231.93,57.63 L213.46,44.46 Z" style="stroke-width: 1; stroke: rgb(0, 0, 0); fill: rgb(255, 0, 0);"/></g><g class="composite-shape"><path class="real" d=" M266.93,77.21 L277.12,88.84 L263.05,82.42 L264.02,81.12 L245.82,67.58 L247.76,64.98 L265.96,78.51 Z" style="stroke-width: 1; stroke: rgb(0, 0, 0); fill: rgb(0, 255, 0);"/></g><g class="composite-shape"><path class="real" d=" M228.8,61.27 C228.8,55.41 233.55,50.67 239.4,50.67 C245.25,50.67 250,55.41 250,61.27 C250,67.12 245.25,71.87 239.4,71.87 C233.55,71.87 228.8,67.12 228.8,61.27 Z" style="stroke-width: 1; stroke: rgb(0, 0, 0); fill: rgb(30, 208, 233);"/></g><g class="arrow-line"><path class="connection real" stroke-dasharray="7.5 6" d="  M227.15,52.5 C208.23,63.66 233.07,92.69 253.29,72.97" style="stroke: rgb(0, 0, 0); stroke-width: 2; fill: none;"/><g stroke="none" transform="matrix(-0.6573752457940953,0.7535633923016383,-0.7535633923016383,-0.6573752457940953,255.1499938964844,71)" style="stroke: none; stroke-width: 2; fill: rgb(0, 0, 0);" fill="#000"><path d=" M11.61,-5.58 L0,0 L11.61,5.58 Z"/></g></g><g class="intersections-group"><g style="stroke: rgb(0, 0, 0); stroke-width: 1; fill: none;"/></g></g><g/><g/><!-- react-empty: 2503 --></svg>
        <svg xmlns="http://www.w3.org/2000/svg" width="328" height="291" style="width:328px;height:291px;font-family:Asana-Math, Asana;background:white;"></svg>
</svg>
