<svg xmlns="http://www.w3.org/2000/svg" width="916" height="469" style="
        width:916px;
        height:469px;
        background: transparent;
        fill: none;
">
        
        <svg xmlns="http://www.w3.org/2000/svg" class="role-diagram-draw-area"><g class="shapes-region" style="stroke: black; fill: none;"><g class="composite-shape"><defs><!-- react-text: 4969 --> <!-- /react-text --><pattern id="_4in5u5fdc" x="0" y="0" width="11.313708498984761" height="11.313708498984761" patternTransform="rotate(45,0,0)" patternUnits="userSpaceOnUse"><path d="M0,0 L0,11.313708498984761" style="stroke: rgb(0, 0, 0); stroke-width: 1; fill: none;"/><path d="M5.656854249492381,0 L5.656854249492381,11.313708498984761" style="stroke: rgb(0, 0, 0); stroke-width: 1; fill: none;"/><path d="M11.313708498984761,0 L11.313708498984761,11.313708498984761" style="stroke: rgb(0, 0, 0); stroke-width: 1; fill: none;"/></pattern></defs><path class="real" d=" M219.25,23.19 L410.87,247.47 L206.35,422.21 L14.73,197.93 Z M353.98,243.01 L214.78,80.08 L71.62,202.39 L210.82,365.32 Z" style="stroke-width: 1; stroke: rgb(0, 0, 0); fill: url(&quot;#_4in5u5fdc&quot;);"/></g><g class="arrow-line"><path class="connection real" stroke-dasharray="" d="  M209.72,221.18 C71.69,215.03 73.97,-14.69 243.43,12.57" style="stroke: rgb(0, 0, 0); stroke-width: 3; fill: none;"/><g stroke="#000" transform="matrix(-0.9851393184393472,-0.17175716364931726,0.17175716364931726,-0.9851393184393472,246,13)" style="stroke: rgb(0, 0, 0); stroke-width: 3;"><path d=" M17.49,-5.26 Q7.94,-0.72 0,0 Q7.94,0.72 17.49,5.26"/></g></g><g class="composite-shape"><path class="real" d=" M220.7,168.06 L235.84,134.73 L232.43,171.18 L229.5,170.4 L215.58,222.74 L209.72,221.18 L223.63,168.84 Z" style="stroke-width: 1; stroke: rgb(0, 0, 0); fill: rgb(245, 166, 35);"/></g><g class="composite-shape"><path class="real" d=" M231.89,91.52 L241.65,76.39 L251.47,91.49 L246.57,91.5 L246.61,114.18 L236.82,114.2 L236.79,91.52 Z" style="stroke-width: 1; stroke: rgb(0, 0, 0); fill: rgb(126, 211, 33);"/></g><g class="composite-shape"><path class="real" d=" M227,91.53 L236.76,76.4 L246.57,91.5 L241.68,91.51 L241.72,114.19 L231.93,114.2 L231.89,91.52 Z" style="stroke-width: 1; stroke: rgb(0, 0, 0); fill: rgb(80, 227, 194);"/></g><g class="composite-shape"><path class="real" d=" M244.61,131.19 C239.92,134.69 233.28,133.73 229.78,129.04 C226.28,124.35 227.24,117.71 231.93,114.2 C236.62,110.7 243.26,111.66 246.77,116.35 C250.27,121.05 249.31,127.69 244.61,131.19 Z" style="stroke-width: 1; stroke: rgb(0, 0, 0); fill: rgb(30, 208, 233);"/></g><g class="composite-shape"><path class="real" d=" M207.8,222.7 C207.8,219.94 210.04,217.7 212.8,217.7 C215.56,217.7 217.8,219.94 217.8,222.7 C217.8,225.46 215.56,227.7 212.8,227.7 C210.04,227.7 207.8,225.46 207.8,222.7 Z" style="stroke-width: 1; stroke: rgb(0, 0, 0); fill: rgb(255, 0, 0);"/></g><g class="composite-shape"><path class="real" d=" M710.65,268.34 L705.53,304.6 L698.52,268.66 L701.55,268.58 L700.12,214.44 L706.19,214.28 L707.61,268.42 Z" style="stroke-width: 1; stroke: rgb(0, 0, 0); fill: rgb(245, 166, 35);"/></g><g class="composite-shape"><path class="real" d=" M729.44,302.12 L744.02,312.7 L728.4,321.67 L728.66,316.78 L706.01,315.58 L706.53,305.81 L729.18,307.01 Z" style="stroke-width: 1; stroke: rgb(0, 0, 0); fill: rgb(126, 211, 33);"/></g><g class="composite-shape"><defs><!-- react-text: 7842 --> <!-- /react-text --><pattern id="_q4ssdqjk1" x="0" y="0" width="11.313708498984761" height="11.313708498984761" patternTransform="rotate(45,0,0)" patternUnits="userSpaceOnUse"><path d="M0,0 L0,11.313708498984761" style="stroke: rgb(0, 0, 0); stroke-width: 1; fill: none;"/><path d="M5.656854249492381,0 L5.656854249492381,11.313708498984761" style="stroke: rgb(0, 0, 0); stroke-width: 1; fill: none;"/><path d="M11.313708498984761,0 L11.313708498984761,11.313708498984761" style="stroke: rgb(0, 0, 0); stroke-width: 1; fill: none;"/></pattern></defs><path class="real" d=" M752.95,406.91 L505.79,245.86 L652.65,20.49 L899.81,181.54 Z M561.63,234.08 L741.17,351.08 L843.97,193.32 L664.43,76.32 Z" style="stroke-width: 1; stroke: rgb(0, 0, 0); fill: url(&quot;#_q4ssdqjk1&quot;);"/></g><g class="composite-shape"><path class="real" d=" M695,279.53 L704.76,264.4 L714.57,279.5 L709.68,279.51 L709.72,302.19 L699.93,302.2 L699.89,279.52 Z" style="stroke-width: 1; stroke: rgb(0, 0, 0); fill: rgb(80, 227, 194);"/></g><g class="composite-shape"><path class="real" d=" M712.61,319.19 C707.92,322.69 701.28,321.73 697.78,317.04 C694.28,312.35 695.24,305.71 699.93,302.2 C704.62,298.7 711.26,299.66 714.77,304.35 C718.27,309.05 717.31,315.69 712.61,319.19 Z" style="stroke-width: 1; stroke: rgb(0, 0, 0); fill: rgb(30, 208, 233);"/></g><g class="composite-shape"><path class="real" d=" M707.6,212.29 C708.38,214.94 706.86,217.72 704.21,218.5 C701.56,219.28 698.78,217.76 698,215.11 C697.22,212.46 698.74,209.68 701.39,208.9 C704.04,208.12 706.82,209.64 707.6,212.29 Z" style="stroke-width: 1; stroke: rgb(0, 0, 0); fill: rgb(255, 0, 0);"/></g><g class="composite-shape"><path class="real" d=" M420,197 L462,197 L462,187 L490,207 L462,227 L462,217 L420,217 L430,207 Z" style="stroke-width: 1; stroke: rgb(0, 0, 0); fill: none;"/></g><g class="intersections-group"><g style="stroke: rgb(0, 0, 0); stroke-width: 1; fill: none;"/></g></g><g/><g/><!-- react-empty: 4990 --></svg>
        <svg xmlns="http://www.w3.org/2000/svg" width="914" height="467" style="width:914px;height:467px;font-family:Asana-Math, Asana;background:transparent;"><g><g><g style="transform:matrix(1,0,0,1,228.7265625,195);"><path d="M45 284C45 90 152 -18 343 -18C439 -18 510 5 600 67L610 103L600 110C506 53 454 35 376 35C219 35 133 131 133 309C133 447 190 653 418 653C489 653 541 639 597 603L597 519L624 519C629 576 637 619 651 665C575 694 518 706 456 706C276 706 45 578 45 284ZM812 390L756 107C755 99 743 61 743 31C743 6 754 -9 773 -9C808 -9 843 11 921 74L952 99L942 117L897 86C868 66 848 56 837 56C828 56 823 64 823 76C823 102 837 183 866 328L879 390L986 390L997 440C959 436 925 434 887 434C903 528 914 577 932 631L921 646C901 634 874 622 843 610L818 440C774 419 748 408 730 403L728 390ZM1240 385L1282 613C1289 652 1296 658 1333 661L1375 664L1378 692L1354 692L1264 689C1248 689 1230 689 1187 690L1123 692L1120 664L1167 662C1191 661 1202 653 1202 635C1202 621 1198 590 1193 559L1119 125C1102 33 1101 32 1061 28L1020 25L1016 -3L1058 -2C1106 -1 1129 0 1148 0L1245 -3L1271 -3L1274 25L1225 28C1198 30 1189 37 1189 58C1189 67 1190 74 1193 93L1235 340L1296 341C1358 342 1400 343 1419 343C1438 343 1479 342 1542 341L1603 340L1563 125C1554 76 1547 48 1542 42C1538 34 1527 30 1505 28L1455 25L1451 -3L1507 -2C1551 -1 1581 0 1592 0C1608 0 1639 -1 1682 -2L1724 -3L1727 25L1669 28C1643 29 1633 37 1633 58C1633 67 1634 76 1637 93L1729 613C1736 652 1742 657 1780 661L1816 664L1819 692L1803 692L1712 689C1697 689 1676 689 1632 690L1569 692L1566 664L1614 662C1638 661 1649 653 1649 635C1649 621 1645 589 1640 559L1610 385Z" stroke="rgb(0, 0, 0)" stroke-width="8" fill="rgb(0, 0, 0)" style="transform:matrix(0.017,0,0,-0.017,0,0);"></path></g></g></g><g><g><g style="transform:matrix(1,0,0,1,212.78125,105);"><path d="M286 646L392 650C454 650 494 641 495 626L503 537L527 537C530 600 537 651 548 689C526 691 498 692 481 692L440 691L275 689L246 689C221 689 181 690 143 691L94 692L91 664L147 662C171 661 182 652 182 635C182 621 178 589 173 559L98 125C81 33 81 32 40 28L4 25L0 -3L34 -2C74 -1 106 0 127 0C145 0 174 -1 213 -2L265 -3L268 25L204 28C177 29 168 37 168 57C168 63 169 74 170 78L206 301L323 301C350 301 381 300 429 298L455 297L474 342L470 349C389 345 329 343 251 343L214 343L260 614C263 630 264 635 269 646Z" stroke="rgb(0, 0, 0)" stroke-width="8" fill="rgb(0, 0, 0)" style="transform:matrix(0.017,0,0,-0.017,0,0);"></path></g></g></g><g><g><g style="transform:matrix(1,0,0,1,660.3359375,186);"><path d="M45 284C45 90 152 -18 343 -18C439 -18 510 5 600 67L610 103L600 110C506 53 454 35 376 35C219 35 133 131 133 309C133 447 190 653 418 653C489 653 541 639 597 603L597 519L624 519C629 576 637 619 651 665C575 694 518 706 456 706C276 706 45 578 45 284ZM812 390L756 107C755 99 743 61 743 31C743 6 754 -9 773 -9C808 -9 843 11 921 74L952 99L942 117L897 86C868 66 848 56 837 56C828 56 823 64 823 76C823 102 837 183 866 328L879 390L986 390L997 440C959 436 925 434 887 434C903 528 914 577 932 631L921 646C901 634 874 622 843 610L818 440C774 419 748 408 730 403L728 390ZM1240 385L1282 613C1289 652 1296 658 1333 661L1375 664L1378 692L1354 692L1264 689C1248 689 1230 689 1187 690L1123 692L1120 664L1167 662C1191 661 1202 653 1202 635C1202 621 1198 590 1193 559L1119 125C1102 33 1101 32 1061 28L1020 25L1016 -3L1058 -2C1106 -1 1129 0 1148 0L1245 -3L1271 -3L1274 25L1225 28C1198 30 1189 37 1189 58C1189 67 1190 74 1193 93L1235 340L1296 341C1358 342 1400 343 1419 343C1438 343 1479 342 1542 341L1603 340L1563 125C1554 76 1547 48 1542 42C1538 34 1527 30 1505 28L1455 25L1451 -3L1507 -2C1551 -1 1581 0 1592 0C1608 0 1639 -1 1682 -2L1724 -3L1727 25L1669 28C1643 29 1633 37 1633 58C1633 67 1634 76 1637 93L1729 613C1736 652 1742 657 1780 661L1816 664L1819 692L1803 692L1712 689C1697 689 1676 689 1632 690L1569 692L1566 664L1614 662C1638 661 1649 653 1649 635C1649 621 1645 589 1640 559L1610 385Z" stroke="rgb(0, 0, 0)" stroke-width="8" fill="rgb(0, 0, 0)" style="transform:matrix(0.017,0,0,-0.017,0,0);"></path></g><g style="transform:matrix(1,0,0,1,693.8671875,186);"><path d="M124 319C94 319 67 291 67 261C67 231 94 203 123 203C155 203 183 230 183 260C183 291 155 319 124 319Z" stroke="rgb(0, 0, 0)" stroke-width="8" fill="rgb(0, 0, 0)" style="transform:matrix(0.017,0,0,-0.017,0,0);"></path></g><g style="transform:matrix(1,0,0,1,701.0859375,186);"><path d="M286 646L392 650C454 650 494 641 495 626L503 537L527 537C530 600 537 651 548 689C526 691 498 692 481 692L440 691L275 689L246 689C221 689 181 690 143 691L94 692L91 664L147 662C171 661 182 652 182 635C182 621 178 589 173 559L98 125C81 33 81 32 40 28L4 25L0 -3L34 -2C74 -1 106 0 127 0C145 0 174 -1 213 -2L265 -3L268 25L204 28C177 29 168 37 168 57C168 63 169 74 170 78L206 301L323 301C350 301 381 300 429 298L455 297L474 342L470 349C389 345 329 343 251 343L214 343L260 614C263 630 264 635 269 646Z" stroke="rgb(0, 0, 0)" stroke-width="8" fill="rgb(0, 0, 0)" style="transform:matrix(0.017,0,0,-0.017,0,0);"></path></g><g style="transform:matrix(1,0,0,1,715.5078125,186);"><path d="M614 448L572 465C555 412 526 362 464 362C396 362 323 462 229 462C136 462 83 411 56 323L98 307C121 357 154 392 211 392C280 392 345 293 444 293C545 293 597 352 614 448ZM614 234L572 252C555 198 526 148 464 148C396 148 323 248 229 248C136 248 83 197 56 109L98 94C121 143 154 178 211 178C280 178 345 79 444 79C545 79 597 138 614 235Z" stroke="rgb(0, 0, 0)" stroke-width="8" fill="rgb(0, 0, 0)" style="transform:matrix(0.017,0,0,-0.017,0,0);"></path></g><g style="transform:matrix(1,0,0,1,731.8515625,186);"><path d="M555 243L555 299L51 299L51 243Z" stroke="rgb(0, 0, 0)" stroke-width="8" fill="rgb(0, 0, 0)" style="transform:matrix(0.017,0,0,-0.017,0,0);"></path></g><g style="transform:matrix(1,0,0,1,742.1328125,186);"><path d="M418 -3L418 27L366 30C311 33 301 44 301 96L301 700L60 598L67 548L217 614L217 96C217 44 206 33 152 30L96 27L96 -3C250 0 250 0 261 0C292 0 402 -3 418 -3Z" stroke="rgb(0, 0, 0)" stroke-width="8" fill="rgb(0, 0, 0)" style="transform:matrix(0.017,0,0,-0.017,0,0);"></path></g></g></g><g><g><g style="transform:matrix(1,0,0,1,663.7265625,246);"><path d="M45 284C45 90 152 -18 343 -18C439 -18 510 5 600 67L610 103L600 110C506 53 454 35 376 35C219 35 133 131 133 309C133 447 190 653 418 653C489 653 541 639 597 603L597 519L624 519C629 576 637 619 651 665C575 694 518 706 456 706C276 706 45 578 45 284ZM812 390L756 107C755 99 743 61 743 31C743 6 754 -9 773 -9C808 -9 843 11 921 74L952 99L942 117L897 86C868 66 848 56 837 56C828 56 823 64 823 76C823 102 837 183 866 328L879 390L986 390L997 440C959 436 925 434 887 434C903 528 914 577 932 631L921 646C901 634 874 622 843 610L818 440C774 419 748 408 730 403L728 390ZM1240 385L1282 613C1289 652 1296 658 1333 661L1375 664L1378 692L1354 692L1264 689C1248 689 1230 689 1187 690L1123 692L1120 664L1167 662C1191 661 1202 653 1202 635C1202 621 1198 590 1193 559L1119 125C1102 33 1101 32 1061 28L1020 25L1016 -3L1058 -2C1106 -1 1129 0 1148 0L1245 -3L1271 -3L1274 25L1225 28C1198 30 1189 37 1189 58C1189 67 1190 74 1193 93L1235 340L1296 341C1358 342 1400 343 1419 343C1438 343 1479 342 1542 341L1603 340L1563 125C1554 76 1547 48 1542 42C1538 34 1527 30 1505 28L1455 25L1451 -3L1507 -2C1551 -1 1581 0 1592 0C1608 0 1639 -1 1682 -2L1724 -3L1727 25L1669 28C1643 29 1633 37 1633 58C1633 67 1634 76 1637 93L1729 613C1736 652 1742 657 1780 661L1816 664L1819 692L1803 692L1712 689C1697 689 1676 689 1632 690L1569 692L1566 664L1614 662C1638 661 1649 653 1649 635C1649 621 1645 589 1640 559L1610 385Z" stroke="rgb(0, 0, 0)" stroke-width="8" fill="rgb(0, 0, 0)" style="transform:matrix(0.017,0,0,-0.017,0,0);"></path></g></g></g><g><g><g style="transform:matrix(1,0,0,1,681.78125,292);"><path d="M286 646L392 650C454 650 494 641 495 626L503 537L527 537C530 600 537 651 548 689C526 691 498 692 481 692L440 691L275 689L246 689C221 689 181 690 143 691L94 692L91 664L147 662C171 661 182 652 182 635C182 621 178 589 173 559L98 125C81 33 81 32 40 28L4 25L0 -3L34 -2C74 -1 106 0 127 0C145 0 174 -1 213 -2L265 -3L268 25L204 28C177 29 168 37 168 57C168 63 169 74 170 78L206 301L323 301C350 301 381 300 429 298L455 297L474 342L470 349C389 345 329 343 251 343L214 343L260 614C263 630 264 635 269 646Z" stroke="rgb(0, 0, 0)" stroke-width="8" fill="rgb(0, 0, 0)" style="transform:matrix(0.017,0,0,-0.017,0,0);"></path></g></g></g><g><g><g style="transform:matrix(1,0,0,1,251.390625,105);"><path d="M316 -3C388 -3 437 8 489 34C645 114 741 265 741 431C741 529 711 599 650 642C604 675 519 693 424 692L220 689L210 689C201 689 198 689 97 692L94 664L147 662C171 661 182 653 182 635C182 621 178 589 173 559L86 55C81 31 56 29 33 23L28 -3L121 0L176 0C211 0 282 -3 316 -3ZM384 655C566 655 649 579 649 415C649 225 549 41 329 41C285 41 236 46 168 56C168 68 169 75 172 93L268 650C291 650 349 655 384 655Z" stroke="rgb(0, 0, 0)" stroke-width="8" fill="rgb(0, 0, 0)" style="transform:matrix(0.017,0,0,-0.017,0,0);"></path></g></g></g><g><g><g style="transform:matrix(1,0,0,1,743.390625,318);"><path d="M316 -3C388 -3 437 8 489 34C645 114 741 265 741 431C741 529 711 599 650 642C604 675 519 693 424 692L220 689L210 689C201 689 198 689 97 692L94 664L147 662C171 661 182 653 182 635C182 621 178 589 173 559L86 55C81 31 56 29 33 23L28 -3L121 0L176 0C211 0 282 -3 316 -3ZM384 655C566 655 649 579 649 415C649 225 549 41 329 41C285 41 236 46 168 56C168 68 169 75 172 93L268 650C291 650 349 655 384 655Z" stroke="rgb(0, 0, 0)" stroke-width="8" fill="rgb(0, 0, 0)" style="transform:matrix(0.017,0,0,-0.017,0,0);"></path></g></g></g><g><g><g style="transform:matrix(1,0,0,1,127.78125,31);"><path d="M547 504C529 618 483 702 356 702C96 702 60 412 94 199C113 80 164 -16 300 -16C536 -16 576 316 547 504ZM478 381L162 381C169 485 213 676 342 676C428 676 461 585 472 517C479 472 478 426 478 381ZM478 349C473 237 454 13 311 13C209 13 181 125 169 203C161 252 162 301 162 349Z" stroke="rgb(0, 0, 0)" stroke-width="8" fill="rgb(0, 0, 0)" style="transform:matrix(0.017,0,0,-0.017,0,0);"></path></g></g></g><g><g><g style="transform:matrix(1,0,0,1,230.65625,129.1875);"><path d="M748 425C748 603 644 706 464 706C227 706 53 523 53 272C53 83 147 -18 323 -18C595 -18 748 207 748 425ZM660 409C660 221 571 24 360 24C216 24 141 110 141 277C141 425 199 664 433 664C549 664 660 610 660 409Z" stroke="rgb(0, 0, 0)" stroke-width="8" fill="rgb(0, 0, 0)" style="transform:matrix(0.017,0,0,-0.017,0,0);"></path></g></g></g><g><g><g style="transform:matrix(1,0,0,1,699.0625,316.796875);"><path d="M748 425C748 603 644 706 464 706C227 706 53 523 53 272C53 83 147 -18 323 -18C595 -18 748 207 748 425ZM660 409C660 221 571 24 360 24C216 24 141 110 141 277C141 425 199 664 433 664C549 664 660 610 660 409Z" stroke="rgb(0, 0, 0)" stroke-width="8" fill="rgb(0, 0, 0)" style="transform:matrix(0.017,0,0,-0.017,0,0);"></path></g></g></g></svg>
</svg>
