<svg xmlns="http://www.w3.org/2000/svg" width="662" height="302" style="
        width:662px;
        height:302px;
        background: transparent;
        fill: none;
">
        
        <svg xmlns="http://www.w3.org/2000/svg"><g class="shapes-region" style="stroke: black; fill: none;"><g class="composite-shape"><path class="real" d=" M579.3,217.15 C579.3,210.61 584.61,205.3 591.15,205.3 C597.69,205.3 603,210.61 603,217.15 C603,223.69 597.69,229 591.15,229 C584.61,229 579.3,223.69 579.3,217.15 Z" style="stroke-width: 1; stroke: rgb(0, 0, 0); fill: rgb(238, 14, 14);"/></g><g class="composite-shape"><path class="real" d=" M300.3,230.65 C300.3,223.83 305.83,218.3 312.65,218.3 C319.47,218.3 325,223.83 325,230.65 C325,237.47 319.47,243 312.65,243 C305.83,243 300.3,237.47 300.3,230.65 Z" style="stroke-width: 1; stroke: rgb(0, 0, 0); fill: rgb(2, 215, 253);"/></g><g class="arrow-line"><path class="connection real" stroke-dasharray="" d="  M591.3,195.2 C589.3,-32.8 49.3,-64.8 50.3,227.2" style="stroke: rgb(0, 0, 0); stroke-width: 1; fill: none;"/><g stroke="#000" transform="matrix(-0.0034906514152236987,-0.9999939076577904,0.9999939076577904,-0.0034906514152236987,50.29998779296875,227.1999969482422)" style="stroke: rgb(0, 0, 0); stroke-width: 1;"><path d=" M10.93,-3.29 Q4.96,-0.45 0,0 Q4.96,0.45 10.93,3.29"/></g></g><g class="arrow-line"><path class="connection real" stroke-dasharray="" d="  M50.3,227.2 L287.3,227.2" style="stroke: rgb(0, 0, 0); stroke-width: 1; fill: none;"/><g stroke="#000" transform="matrix(-1,1.2246467991473532e-16,-1.2246467991473532e-16,-1,289.29998779296875,227.19999694824222)" style="stroke: rgb(0, 0, 0); stroke-width: 1;"><path d=" M10.93,-3.29 Q4.96,-0.45 0,0 Q4.96,0.45 10.93,3.29"/></g></g><g class="composite-shape"><path class="real" d=" M304.5,243 L321.3,243 L321.3,283 L304.5,283 Z" style="stroke-width: 1; stroke: rgb(0, 0, 0); fill: rgb(35, 221, 212);"/></g><g class="intersections-group"><g style="stroke: rgb(0, 0, 0); stroke-width: 1; fill: none;"/></g></g><g/><g/><!-- react-empty: 557 --></svg>
        <svg xmlns="http://www.w3.org/2000/svg" width="660" height="300" style="width:660px;height:300px;font-family:Asana-Math, Asana;background:transparent;"></svg>
</svg>
